<?xml version="1.0" standalone="no"?><!DOCTYPE svg PUBLIC "-//W3C//DTD SVG 1.1//EN" "http://www.w3.org/Graphics/SVG/1.1/DTD/svg11.dtd"><svg t="1481892522677" class="icon" style="" viewBox="0 0 1024 1024" version="1.1" xmlns="http://www.w3.org/2000/svg" p-id="5311" xmlns:xlink="http://www.w3.org/1999/xlink" width="16" height="16"><defs><style type="text/css"></style></defs><path d="M1024 318c0-5.399 0-10.601 0-16-21.801-27.6-47.401-51.399-76-72-6.001 0-12 0-18 0-8 6.201-16.8 11.799-24.201 18.601-129.001 121.6-257.6 243.401-386.601 364.999-2.4 2.201-4.801 4.201-7.401 6.4-2.8-2.4-5.001-4.4-7.2-6.4-128.8-121.6-257.4-243.401-386.4-365.001-7.401-7.001-16-12.4-24.201-18.601-6.001 0-12 0-18 0-28.601 20.601-54.2 44.4-76 72 0 5.399 0 10.6 0 16 4.601 6 8.4 12.8 13.801 18 155.6 147.2 311.2 294.201 467.2 441.2 6.8 6.4 15.401 11.2 23.199 16.8 5.399 0 10.601 0 16 0 9.401-7.2 19.6-13.6 28.202-21.6 152.799-144.201 305.6-288.601 458.201-433.001 6.601-6.201 11.6-14.199 17.401-21.401z" p-id="5312"></path></svg>