<?xml version="1.0" standalone="no"?><!DOCTYPE svg PUBLIC "-//W3C//DTD SVG 1.1//EN" "http://www.w3.org/Graphics/SVG/1.1/DTD/svg11.dtd"><svg t="1481960093637" class="icon" style="" viewBox="0 0 1024 1024" version="1.1" xmlns="http://www.w3.org/2000/svg" p-id="3824" xmlns:xlink="http://www.w3.org/1999/xlink" width="16" height="16"><defs><style type="text/css"></style></defs><path d="M512 65.585c-246.555 0-446.415 199.86-446.415 446.415 0 246.54 199.86 446.415 446.415 446.415 246.555 0 446.415-199.875 446.415-446.415 0-246.555-199.86-446.415-446.415-446.415zM722.78 657.47c43.545 43.545-21.765 108.855-65.31 65.31-48.495-48.495-96.975-96.975-145.47-145.47-48.48 48.48-96.975 96.975-145.455 145.47-43.545 43.545-108.855-21.765-65.325-65.31 48.495-48.495 96.99-96.975 145.47-145.455-48.48-48.495-96.975-96.975-145.47-145.47-43.53-43.53 21.78-108.855 65.31-65.31 48.495 48.495 96.975 96.975 145.47 145.47 48.495-48.495 96.975-96.975 145.47-145.47 43.545-43.545 108.855 21.78 65.31 65.31-48.48 48.495-96.975 96.975-145.47 145.47 48.495 48.48 96.975 96.96 145.47 145.455z" p-id="3825" fill="#707070"></path></svg>